<?xml version="1.0" standalone="no"?>
<!DOCTYPE svg PUBLIC "-//W3C//DTD SVG 20010904//EN"
 "http://www.w3.org/TR/2001/REC-SVG-20010904/DTD/svg10.dtd">
<svg version="1.0" xmlns="http://www.w3.org/2000/svg"
 width="500.000000pt" height="500.000000pt" viewBox="0 0 500.000000 500.000000"
 preserveAspectRatio="xMidYMid meet">

<g transform="translate(0.000000,500.000000) scale(0.100000,-0.100000)"
fill="#000000" stroke="none">
<path d="M1628 3605 c3 -67 8 -84 27 -105 13 -14 32 -41 44 -60 l21 -35 1 30
c1 17 1 33 0 38 0 4 4 7 9 7 6 0 10 -16 10 -35 l0 -35 35 39 c41 45 42 52 15
124 -26 71 -58 99 -118 107 l-47 6 3 -81z m99 -107 c-3 -7 -5 -2 -5 12 0 14 2
19 5 13 2 -7 2 -19 0 -25z"/>
<path d="M1596 3671 c-4 -7 -5 -15 -2 -18 9 -9 19 4 14 18 -4 11 -6 11 -12 0z"/>
<path d="M1383 3610 c-32 -13 -29 -46 5 -78 16 -15 37 -49 47 -77 76 -210 100
-249 176 -288 l52 -28 -6 51 c-3 27 -15 71 -27 97 -11 25 -19 48 -16 50 2 2
19 -30 37 -72 19 -41 39 -75 46 -75 12 0 33 51 33 81 0 11 -5 19 -11 19 -8 0
-9 11 -5 31 14 72 -94 212 -207 269 -63 31 -86 35 -124 20z"/>
<path d="M1918 3515 c-88 -36 -138 -75 -169 -129 -11 -18 -10 -18 12 -2 13 9
27 16 31 16 15 0 8 -37 -11 -54 -13 -12 -20 -34 -23 -72 -3 -54 -3 -55 15 -33
9 11 17 29 17 40 0 10 6 22 14 26 18 11 46 67 46 93 0 11 6 23 14 26 22 9 56
-14 56 -38 0 -21 0 -21 28 3 15 13 -2 -7 -38 -44 -35 -37 -59 -67 -53 -67 7 0
21 10 33 22 16 17 23 19 32 10 7 -7 38 -12 70 -12 l59 0 34 72 c19 40 35 78
35 85 0 7 -13 19 -30 28 -16 8 -34 24 -40 35 -14 27 -60 25 -132 -5z"/>
<path d="M1866 3408 c-1 -7 -9 -29 -15 -48 -24 -66 -24 -77 -3 -46 12 16 28
31 37 32 9 1 20 6 23 10 4 4 -1 4 -10 1 -22 -8 -24 11 -3 19 21 8 19 21 -5 34
-15 8 -21 8 -24 -2z"/>
<path d="M1751 3355 c-33 -37 -43 -68 -16 -45 23 19 58 70 52 76 -2 3 -18 -11
-36 -31z"/>
<path d="M1240 3351 c-94 -29 -166 -108 -115 -127 11 -5 15 -22 15 -70 0 -58
2 -64 21 -64 38 0 59 -19 59 -54 0 -43 -33 -92 -128 -189 -92 -94 -320 -297
-334 -297 -15 0 -6 459 10 487 17 30 46 44 106 52 37 4 52 11 54 24 3 16 -15
17 -267 17 -187 0 -272 -3 -277 -11 -9 -16 15 -29 54 -29 18 0 46 -7 62 -15
62 -32 60 -12 60 -547 0 -356 -3 -494 -12 -513 -15 -33 -51 -52 -116 -61 -34
-4 -52 -11 -52 -20 0 -12 49 -14 275 -14 228 0 275 2 275 14 0 9 -17 16 -47
21 -59 9 -99 28 -115 58 -15 26 -25 497 -11 497 5 0 113 -105 241 -233 185
-186 232 -238 232 -259 0 -36 -23 -57 -71 -64 l-39 -7 0 -69 0 -70 228 4 c182
4 237 8 277 22 80 28 136 75 173 144 55 102 62 170 62 562 0 356 -4 418 -24
401 -8 -7 -10 3 -8 34 5 62 -26 94 -92 93 -25 -1 -46 -5 -46 -9 0 -14 -42
-121 -46 -117 -2 2 6 33 17 68 l19 63 -22 26 c-41 47 -52 52 -85 46 -31 -6
-48 8 -21 17 16 6 -63 64 -127 94 -62 28 -53 31 15 4 28 -11 53 -20 56 -20 2
0 -7 22 -20 49 -22 43 -30 50 -70 60 -50 12 -128 13 -166 2z m256 -288 c-2
-16 -2 -93 2 -172 l7 -144 28 -10 c22 -7 38 -4 78 16 l51 25 -4 -337 c-3 -315
-5 -339 -24 -381 -33 -72 -46 -78 -97 -45 -23 16 -167 153 -321 305 l-279 276
59 54 c33 30 134 129 225 222 128 129 179 173 220 193 30 14 55 25 57 25 2 0
1 -12 -2 -27z"/>
<path d="M1737 3255 c-4 -25 -18 -68 -32 -95 -14 -28 -23 -55 -20 -60 13 -21
46 -2 80 46 l36 49 -41 -45 c-37 -40 -40 -42 -26 -14 8 18 27 46 42 63 14 17
21 31 15 31 -6 0 -27 -25 -47 -55 -20 -30 -38 -55 -40 -55 -2 0 6 20 17 44 18
43 37 136 27 136 -3 0 -8 -20 -11 -45z"/>
<path d="M1804 3263 c3 -21 6 -47 7 -58 1 -17 2 -16 8 4 9 32 2 91 -11 91 -7
0 -8 -15 -4 -37z"/>
<path d="M1896 3273 c-4 -16 -9 -36 -12 -45 -3 -10 -1 -18 4 -18 7 0 32 64 32
84 0 18 -19 2 -24 -21z"/>
<path d="M1958 3282 c-20 -2 -30 -11 -38 -37 -15 -46 -36 -62 -47 -38 -11 21
-11 33 1 51 7 12 4 12 -15 1 -15 -8 -19 -14 -11 -17 10 -3 8 -8 -5 -18 -17
-13 -17 -14 2 -8 12 4 5 -7 -20 -29 -22 -20 -37 -38 -33 -42 3 -3 33 1 66 9
81 22 110 19 42 -3 -78 -26 -111 -43 -107 -55 7 -22 83 -40 172 -40 87 -1 94
1 190 46 67 32 107 45 123 42 48 -13 17 63 -38 91 -56 29 -217 56 -282 47z
m35 -109 c-7 -2 -19 -2 -25 0 -7 3 -2 5 12 5 14 0 19 -2 13 -5z"/>
<path d="M1846 3009 c3 -19 7 -39 9 -45 2 -6 40 -28 84 -49 82 -39 161 -107
161 -140 0 -24 24 -18 55 15 23 24 29 40 29 70 -2 48 -43 120 -88 155 -32 24
-39 26 -93 18 l-58 -9 33 -17 c49 -27 38 -27 -25 -2 -32 13 -70 27 -85 30 -27
7 -28 6 -22 -26z"/>
<path d="M2050 2770 c-13 -8 -12 -10 3 -10 9 0 20 0 24 -1 4 0 9 4 11 10 5 14
-18 14 -38 1z"/>
<path d="M3810 2719 c-24 -33 -72 -87 -107 -119 -35 -33 -63 -64 -63 -70 0 -5
14 -10 30 -10 l30 0 0 -182 c1 -251 15 -299 96 -326 58 -20 112 -7 156 38 48
48 54 85 7 46 -35 -30 -51 -32 -73 -10 -14 13 -16 48 -16 225 l0 209 65 0 65
0 0 30 0 30 -65 0 -65 0 0 100 c0 55 -3 100 -8 100 -4 0 -27 -27 -52 -61z"/>
<path d="M2760 2581 c-121 -37 -189 -128 -143 -189 26 -34 67 -45 108 -27 45
18 51 45 23 101 l-23 46 24 19 c14 11 39 19 61 19 57 0 80 -34 80 -116 l0 -63
-99 -51 c-159 -82 -216 -154 -188 -237 32 -96 147 -103 251 -16 l30 25 18 -36
c26 -50 79 -66 143 -42 25 10 54 31 66 47 24 35 20 46 -10 27 -40 -25 -46 -3
-51 217 l-5 204 -28 29 c-15 16 -45 34 -66 41 -43 12 -152 13 -191 2z m130
-352 c0 -103 -9 -118 -67 -119 -89 -1 -84 113 9 180 22 17 45 30 50 30 4 0 8
-41 8 -91z"/>
<path d="M3468 2575 c-15 -8 -38 -34 -52 -58 l-26 -42 0 53 0 52 -115 0 c-63
0 -115 -3 -115 -7 0 -5 14 -16 30 -25 l30 -17 0 -229 c0 -209 -2 -230 -18
-245 -10 -10 -24 -17 -30 -17 -7 0 -12 -4 -12 -10 0 -6 57 -10 150 -10 93 0
150 4 150 10 0 6 -7 10 -15 10 -8 0 -24 9 -35 20 -18 18 -20 33 -20 180 0 118
4 170 14 195 17 40 29 43 71 15 41 -27 70 -25 94 6 30 39 24 102 -13 126 -18
12 -59 8 -88 -7z"/>
<path d="M4202 2569 c-55 -28 -107 -89 -133 -158 -17 -46 -20 -72 -17 -141 9
-170 93 -264 238 -264 96 0 156 36 209 124 38 64 22 68 -37 10 -36 -36 -45
-40 -90 -40 -40 0 -57 6 -82 26 -39 33 -69 91 -77 149 l-6 45 158 0 158 0 -6
54 c-9 89 -70 179 -140 205 -47 18 -128 13 -175 -10z m133 -31 c19 -17 28 -38
35 -83 17 -101 21 -95 -75 -95 l-85 0 0 48 c1 78 42 147 92 151 4 1 19 -9 33
-21z"/>
<path d="M1960 2574 c0 -4 11 -17 25 -30 l25 -23 0 -195 c0 -207 5 -234 48
-279 54 -57 139 -56 220 3 l42 30 0 -30 0 -30 105 0 c58 0 105 3 105 8 0 4 -9
13 -20 20 -19 12 -20 23 -20 272 l0 260 -120 0 c-66 0 -120 -4 -120 -8 0 -5
15 -15 33 -23 l32 -14 3 -193 2 -193 -29 -30 c-19 -19 -40 -29 -59 -29 -54 0
-57 12 -60 262 l-4 228 -104 0 c-57 0 -104 -3 -104 -6z"/>
</g>
</svg>
